%TF.GenerationSoftware,KiCad,Pcbnew,9.0.3*%
%TF.CreationDate,2025-08-15T02:20:32+00:00*%
%TF.ProjectId,board,626f6172-642e-46b6-9963-61645f706362,1.0*%
%TF.SameCoordinates,Original*%
%TF.FileFunction,Soldermask,Bot*%
%TF.FilePolarity,Negative*%
%FSLAX46Y46*%
G04 Gerber Fmt 4.6, Leading zero omitted, Abs format (unit mm)*
G04 Created by KiCad (PCBNEW 9.0.3) date 2025-08-15 02:20:32*
%MOMM*%
%LPD*%
G01*
G04 APERTURE LIST*
G04 Aperture macros list*
%AMRoundRect*
0 Rectangle with rounded corners*
0 $1 Rounding radius*
0 $2 $3 $4 $5 $6 $7 $8 $9 X,Y pos of 4 corners*
0 Add a 4 corners polygon primitive as box body*
4,1,4,$2,$3,$4,$5,$6,$7,$8,$9,$2,$3,0*
0 Add four circle primitives for the rounded corners*
1,1,$1+$1,$2,$3*
1,1,$1+$1,$4,$5*
1,1,$1+$1,$6,$7*
1,1,$1+$1,$8,$9*
0 Add four rect primitives between the rounded corners*
20,1,$1+$1,$2,$3,$4,$5,0*
20,1,$1+$1,$4,$5,$6,$7,0*
20,1,$1+$1,$6,$7,$8,$9,0*
20,1,$1+$1,$8,$9,$2,$3,0*%
G04 Aperture macros list end*
%ADD10C,1.200000*%
%ADD11C,1.300000*%
%ADD12RoundRect,0.250000X-0.620000X-0.845000X0.620000X-0.845000X0.620000X0.845000X-0.620000X0.845000X0*%
%ADD13O,1.740000X2.190000*%
%ADD14C,1.400000*%
%ADD15RoundRect,0.250000X-0.600000X-0.600000X0.600000X-0.600000X0.600000X0.600000X-0.600000X0.600000X0*%
%ADD16C,1.700000*%
%ADD17C,1.440000*%
%ADD18C,1.800000*%
%ADD19C,1.600000*%
%ADD20R,1.905000X2.000000*%
%ADD21O,1.905000X2.000000*%
%ADD22R,3.000000X3.000000*%
%ADD23R,2.000000X1.905000*%
%ADD24O,2.000000X1.905000*%
%ADD25R,1.050000X1.500000*%
%ADD26O,1.050000X1.500000*%
%ADD27R,1.500000X1.050000*%
%ADD28O,1.500000X1.050000*%
%ADD29R,1.800000X1.800000*%
%ADD30RoundRect,0.250000X-0.550000X-0.550000X0.550000X-0.550000X0.550000X0.550000X-0.550000X0.550000X0*%
%ADD31RoundRect,0.250000X-0.550000X0.550000X-0.550000X-0.550000X0.550000X-0.550000X0.550000X0.550000X0*%
G04 APERTURE END LIST*
D10*
%TO.C,C3*%
X146685000Y-90690000D03*
X146685000Y-92190000D03*
%TD*%
D11*
%TO.C,C11*%
X140650000Y-103215000D03*
X140650000Y-105215000D03*
%TD*%
%TO.C,C12*%
X134935000Y-102675000D03*
X134935000Y-104675000D03*
%TD*%
D12*
%TO.C,J1*%
X104140000Y-69850000D03*
D13*
X106680000Y-69850000D03*
%TD*%
D14*
%TO.C,R7*%
X195410000Y-123190000D03*
X205910000Y-123190000D03*
%TD*%
D15*
%TO.C,J7*%
X183515000Y-123190000D03*
D16*
X186055000Y-123190000D03*
X183515000Y-125730000D03*
X186055000Y-125730000D03*
X183515000Y-128270000D03*
X186055000Y-128270000D03*
%TD*%
D17*
%TO.C,RV2*%
X197485000Y-83820000D03*
X200025000Y-81280000D03*
X202565000Y-83820000D03*
%TD*%
D18*
%TO.C,D3*%
X138745000Y-80740000D03*
X138745000Y-89440000D03*
%TD*%
D19*
%TO.C,C1*%
X204475000Y-106045000D03*
X199475000Y-106045000D03*
%TD*%
D20*
%TO.C,U5*%
X154305000Y-121015000D03*
D21*
X151765000Y-121015000D03*
X149225000Y-121015000D03*
%TD*%
D22*
%TO.C,TP2*%
X133350000Y-76835000D03*
%TD*%
D19*
%TO.C,C9*%
X104140000Y-89665000D03*
X104140000Y-84665000D03*
%TD*%
D12*
%TO.C,F1*%
X113030000Y-69850000D03*
D13*
X115570000Y-69850000D03*
%TD*%
D22*
%TO.C,TP9*%
X104140000Y-76835000D03*
%TD*%
D19*
%TO.C,C5*%
X114935000Y-104310000D03*
X109935000Y-104310000D03*
%TD*%
D14*
%TO.C,R1*%
X194950000Y-103675000D03*
X194950000Y-93175000D03*
%TD*%
D11*
%TO.C,C8*%
X148860000Y-115570000D03*
X150860000Y-115570000D03*
%TD*%
D22*
%TO.C,TP3*%
X106045000Y-109855000D03*
%TD*%
D12*
%TO.C,J4*%
X102870000Y-129540000D03*
D13*
X105410000Y-129540000D03*
X107950000Y-129540000D03*
X110490000Y-129540000D03*
X113030000Y-129540000D03*
X115570000Y-129540000D03*
%TD*%
D23*
%TO.C,Q3*%
X115885000Y-89705000D03*
D24*
X115885000Y-87165000D03*
X115885000Y-84625000D03*
%TD*%
D23*
%TO.C,D2*%
X124460000Y-84625000D03*
D24*
X124460000Y-87165000D03*
X124460000Y-89705000D03*
%TD*%
D14*
%TO.C,R3*%
X116375000Y-116205000D03*
X105875000Y-116205000D03*
%TD*%
D19*
%TO.C,C10*%
X131445000Y-88395000D03*
X131445000Y-83395000D03*
%TD*%
D22*
%TO.C,TP6*%
X180975000Y-109835000D03*
%TD*%
D12*
%TO.C,J2*%
X121920000Y-69850000D03*
D13*
X124460000Y-69850000D03*
%TD*%
D12*
%TO.C,J6*%
X203200000Y-129540000D03*
D13*
X205740000Y-129540000D03*
%TD*%
D14*
%TO.C,R9*%
X186060000Y-103845000D03*
X186060000Y-93345000D03*
%TD*%
D20*
%TO.C,U4*%
X134935000Y-96690000D03*
D21*
X137475000Y-96690000D03*
X140015000Y-96690000D03*
%TD*%
D12*
%TO.C,SW1*%
X130810000Y-69850000D03*
D13*
X133350000Y-69850000D03*
%TD*%
D22*
%TO.C,TP1*%
X115570000Y-76835000D03*
%TD*%
D25*
%TO.C,Q2*%
X113030000Y-120650000D03*
D26*
X114300000Y-120650000D03*
X115570000Y-120650000D03*
%TD*%
D19*
%TO.C,C4*%
X152400000Y-95210000D03*
X152400000Y-90210000D03*
%TD*%
D14*
%TO.C,R12*%
X117790000Y-105750000D03*
X117790000Y-95250000D03*
%TD*%
D11*
%TO.C,C7*%
X155210000Y-115570000D03*
X157210000Y-115570000D03*
%TD*%
D18*
%TO.C,R10*%
X127950000Y-95540000D03*
X127950000Y-110540000D03*
%TD*%
D22*
%TO.C,TP5*%
X125095000Y-76835000D03*
%TD*%
D14*
%TO.C,R11*%
X122235000Y-95250000D03*
X122235000Y-105750000D03*
%TD*%
%TO.C,R8*%
X196510000Y-76200000D03*
X207010000Y-76200000D03*
%TD*%
%TO.C,R5*%
X146685000Y-95715000D03*
X146685000Y-106215000D03*
%TD*%
D19*
%TO.C,C2*%
X152400000Y-99100000D03*
X152400000Y-104100000D03*
%TD*%
%TO.C,C6*%
X102275000Y-104310000D03*
X107275000Y-104310000D03*
%TD*%
D27*
%TO.C,Q4*%
X197485000Y-130810000D03*
D28*
X197485000Y-129540000D03*
X197485000Y-128270000D03*
%TD*%
D17*
%TO.C,RV3*%
X149225000Y-130175000D03*
X151765000Y-127635000D03*
X154305000Y-130175000D03*
%TD*%
D29*
%TO.C,Q1*%
X103505000Y-120650000D03*
D18*
X106045000Y-120650000D03*
X108585000Y-120650000D03*
%TD*%
D30*
%TO.C,U2*%
X198125000Y-93345000D03*
D19*
X198125000Y-95885000D03*
X198125000Y-98425000D03*
X198125000Y-100965000D03*
X205745000Y-100965000D03*
X205745000Y-98425000D03*
X205745000Y-95885000D03*
X205745000Y-93345000D03*
%TD*%
D22*
%TO.C,TP8*%
X180975000Y-93325000D03*
%TD*%
D20*
%TO.C,U3*%
X109535000Y-96690000D03*
D21*
X106995000Y-96690000D03*
X104455000Y-96690000D03*
%TD*%
D12*
%TO.C,J5*%
X165100000Y-129540000D03*
D13*
X167640000Y-129540000D03*
X170180000Y-129540000D03*
X172720000Y-129540000D03*
X175260000Y-129540000D03*
%TD*%
D31*
%TO.C,D1*%
X120015000Y-83355000D03*
D19*
X120015000Y-90975000D03*
%TD*%
D22*
%TO.C,TP4*%
X160020000Y-129540000D03*
%TD*%
D14*
%TO.C,R6*%
X108585000Y-94150000D03*
X108585000Y-83650000D03*
%TD*%
%TO.C,R2*%
X190505000Y-108925000D03*
X190505000Y-98425000D03*
%TD*%
D12*
%TO.C,J3*%
X198755000Y-69850000D03*
D13*
X201295000Y-69850000D03*
X203835000Y-69850000D03*
%TD*%
D15*
%TO.C,J8*%
X134502500Y-118110000D03*
D16*
X137042500Y-118110000D03*
X134502500Y-120650000D03*
X137042500Y-120650000D03*
X134502500Y-123190000D03*
X137042500Y-123190000D03*
X134502500Y-125730000D03*
X137042500Y-125730000D03*
X134502500Y-128270000D03*
X137042500Y-128270000D03*
%TD*%
D17*
%TO.C,RV1*%
X204475000Y-110490000D03*
X201935000Y-113030000D03*
X199395000Y-110490000D03*
%TD*%
D22*
%TO.C,TP7*%
X180975000Y-101600000D03*
%TD*%
D14*
%TO.C,R4*%
X127170000Y-123825000D03*
X116670000Y-123825000D03*
%TD*%
M02*
