%TF.GenerationSoftware,KiCad,Pcbnew,9.0.3*%
%TF.CreationDate,2025-08-14T07:09:17+00:00*%
%TF.ProjectId,board,626f6172-642e-46b6-9963-61645f706362,1.0*%
%TF.SameCoordinates,Original*%
%TF.FileFunction,Copper,L2,Bot*%
%TF.FilePolarity,Positive*%
%FSLAX46Y46*%
G04 Gerber Fmt 4.6, Leading zero omitted, Abs format (unit mm)*
G04 Created by KiCad (PCBNEW 9.0.3) date 2025-08-14 07:09:17*
%MOMM*%
%LPD*%
G01*
G04 APERTURE LIST*
G04 Aperture macros list*
%AMRoundRect*
0 Rectangle with rounded corners*
0 $1 Rounding radius*
0 $2 $3 $4 $5 $6 $7 $8 $9 X,Y pos of 4 corners*
0 Add a 4 corners polygon primitive as box body*
4,1,4,$2,$3,$4,$5,$6,$7,$8,$9,$2,$3,0*
0 Add four circle primitives for the rounded corners*
1,1,$1+$1,$2,$3*
1,1,$1+$1,$4,$5*
1,1,$1+$1,$6,$7*
1,1,$1+$1,$8,$9*
0 Add four rect primitives between the rounded corners*
20,1,$1+$1,$2,$3,$4,$5,0*
20,1,$1+$1,$4,$5,$6,$7,0*
20,1,$1+$1,$6,$7,$8,$9,0*
20,1,$1+$1,$8,$9,$2,$3,0*%
G04 Aperture macros list end*
%TA.AperFunction,ComponentPad*%
%ADD10RoundRect,0.250000X-0.620000X-0.845000X0.620000X-0.845000X0.620000X0.845000X-0.620000X0.845000X0*%
%TD*%
%TA.AperFunction,ComponentPad*%
%ADD11O,1.740000X2.190000*%
%TD*%
%TA.AperFunction,ComponentPad*%
%ADD12C,1.400000*%
%TD*%
%TA.AperFunction,ComponentPad*%
%ADD13RoundRect,0.250000X-0.600000X-0.600000X0.600000X-0.600000X0.600000X0.600000X-0.600000X0.600000X0*%
%TD*%
%TA.AperFunction,ComponentPad*%
%ADD14C,1.700000*%
%TD*%
%TA.AperFunction,ComponentPad*%
%ADD15C,1.440000*%
%TD*%
%TA.AperFunction,ComponentPad*%
%ADD16C,1.300000*%
%TD*%
%TA.AperFunction,ComponentPad*%
%ADD17C,1.800000*%
%TD*%
%TA.AperFunction,ComponentPad*%
%ADD18C,1.600000*%
%TD*%
%TA.AperFunction,ComponentPad*%
%ADD19R,1.905000X2.000000*%
%TD*%
%TA.AperFunction,ComponentPad*%
%ADD20O,1.905000X2.000000*%
%TD*%
%TA.AperFunction,ComponentPad*%
%ADD21R,3.000000X3.000000*%
%TD*%
%TA.AperFunction,ComponentPad*%
%ADD22R,2.000000X1.905000*%
%TD*%
%TA.AperFunction,ComponentPad*%
%ADD23O,2.000000X1.905000*%
%TD*%
%TA.AperFunction,ComponentPad*%
%ADD24R,1.050000X1.500000*%
%TD*%
%TA.AperFunction,ComponentPad*%
%ADD25O,1.050000X1.500000*%
%TD*%
%TA.AperFunction,ComponentPad*%
%ADD26C,1.200000*%
%TD*%
%TA.AperFunction,ComponentPad*%
%ADD27R,1.500000X1.050000*%
%TD*%
%TA.AperFunction,ComponentPad*%
%ADD28O,1.500000X1.050000*%
%TD*%
%TA.AperFunction,ComponentPad*%
%ADD29R,1.800000X1.800000*%
%TD*%
%TA.AperFunction,ComponentPad*%
%ADD30RoundRect,0.250000X-0.550000X-0.550000X0.550000X-0.550000X0.550000X0.550000X-0.550000X0.550000X0*%
%TD*%
%TA.AperFunction,ComponentPad*%
%ADD31RoundRect,0.250000X-0.550000X0.550000X-0.550000X-0.550000X0.550000X-0.550000X0.550000X0.550000X0*%
%TD*%
%TA.AperFunction,HeatsinkPad*%
%ADD32C,0.600000*%
%TD*%
%TA.AperFunction,ComponentPad*%
%ADD33RoundRect,0.250000X0.620000X0.845000X-0.620000X0.845000X-0.620000X-0.845000X0.620000X-0.845000X0*%
%TD*%
%TA.AperFunction,ViaPad*%
%ADD34C,0.800000*%
%TD*%
%TA.AperFunction,Conductor*%
%ADD35C,0.400000*%
%TD*%
%TA.AperFunction,Conductor*%
%ADD36C,0.800000*%
%TD*%
G04 APERTURE END LIST*
D10*
%TO.P,J1,1,Pin_1*%
%TO.N,GND*%
X104140000Y-69850000D03*
D11*
%TO.P,J1,2,Pin_2*%
%TO.N,VDD*%
X106680000Y-69850000D03*
%TD*%
D12*
%TO.P,R7,1*%
%TO.N,+3V3*%
X195410000Y-123190000D03*
%TO.P,R7,2*%
%TO.N,Net-(J6-Pin_2)*%
X205910000Y-123190000D03*
%TD*%
D13*
%TO.P,J7,1,Pin_1*%
%TO.N,/EN*%
X183515000Y-123190000D03*
D14*
%TO.P,J7,2,Pin_2*%
%TO.N,+5V*%
X186055000Y-123190000D03*
%TO.P,J7,3,Pin_3*%
%TO.N,/TX*%
X183515000Y-125730000D03*
%TO.P,J7,4,Pin_4*%
%TO.N,GND*%
X186055000Y-125730000D03*
%TO.P,J7,5,Pin_5*%
%TO.N,/RX*%
X183515000Y-128270000D03*
%TO.P,J7,6,Pin_6*%
%TO.N,/IO0*%
X186055000Y-128270000D03*
%TD*%
D15*
%TO.P,RV2,1,1*%
%TO.N,+5V*%
X197485000Y-83820000D03*
%TO.P,RV2,2,2*%
%TO.N,Net-(R8-Pad2)*%
X200025000Y-81280000D03*
%TO.P,RV2,3,3*%
%TO.N,unconnected-(RV2-Pad3)*%
X202565000Y-83820000D03*
%TD*%
D16*
%TO.P,C11,1*%
%TO.N,VSS*%
X140650000Y-105215000D03*
%TO.P,C11,2*%
%TO.N,GND*%
X140650000Y-103215000D03*
%TD*%
D17*
%TO.P,D3,1,K*%
%TO.N,VSS*%
X138745000Y-80740000D03*
%TO.P,D3,2,A*%
%TO.N,Net-(D3-A)*%
X138745000Y-89440000D03*
%TD*%
D18*
%TO.P,C1,1*%
%TO.N,+3V3*%
X204475000Y-106045000D03*
%TO.P,C1,2*%
%TO.N,GND*%
X199475000Y-106045000D03*
%TD*%
D19*
%TO.P,U5,1,ADJ*%
%TO.N,Net-(U5-ADJ)*%
X154305000Y-121015000D03*
D20*
%TO.P,U5,2,VO*%
%TO.N,+3V3*%
X151765000Y-121015000D03*
%TO.P,U5,3,VI*%
%TO.N,+5V*%
X149225000Y-121015000D03*
%TD*%
D21*
%TO.P,TP2,1,1*%
%TO.N,VSS*%
X133350000Y-76835000D03*
%TD*%
D18*
%TO.P,C9,1*%
%TO.N,Net-(D1-A)*%
X104140000Y-89665000D03*
%TO.P,C9,2*%
%TO.N,GND*%
X104140000Y-84665000D03*
%TD*%
D10*
%TO.P,F1,1*%
%TO.N,VDD*%
X113030000Y-69850000D03*
D11*
%TO.P,F1,2*%
%TO.N,Net-(D2-A)*%
X115570000Y-69850000D03*
%TD*%
D21*
%TO.P,TP9,1,1*%
%TO.N,GND*%
X104140000Y-76835000D03*
%TD*%
D18*
%TO.P,C5,1*%
%TO.N,VDC*%
X114935000Y-104310000D03*
%TO.P,C5,2*%
%TO.N,GND*%
X109935000Y-104310000D03*
%TD*%
D12*
%TO.P,R1,1*%
%TO.N,+3V3*%
X194950000Y-103675000D03*
%TO.P,R1,2*%
%TO.N,/SENSOR*%
X194950000Y-93175000D03*
%TD*%
D16*
%TO.P,C8,1*%
%TO.N,+5V*%
X148860000Y-115570000D03*
%TO.P,C8,2*%
%TO.N,GND*%
X150860000Y-115570000D03*
%TD*%
D21*
%TO.P,TP3,1,1*%
%TO.N,+5V*%
X106045000Y-109855000D03*
%TD*%
D10*
%TO.P,J4,1,Pin_1*%
%TO.N,+5V*%
X102870000Y-129540000D03*
D11*
%TO.P,J4,2,Pin_2*%
%TO.N,GND*%
X105410000Y-129540000D03*
%TO.P,J4,3,Pin_3*%
%TO.N,/PWM_5V*%
X107950000Y-129540000D03*
%TO.P,J4,4,Pin_4*%
%TO.N,unconnected-(J4-Pin_4-Pad4)*%
X110490000Y-129540000D03*
%TO.P,J4,5,Pin_5*%
%TO.N,/SDA*%
X113030000Y-129540000D03*
%TO.P,J4,6,Pin_6*%
%TO.N,/SCL*%
X115570000Y-129540000D03*
%TD*%
D22*
%TO.P,Q3,1,G*%
%TO.N,Net-(D1-A)*%
X115885000Y-89705000D03*
D23*
%TO.P,Q3,2,D*%
%TO.N,Net-(D2-A)*%
X115885000Y-87165000D03*
%TO.P,Q3,3,S*%
%TO.N,VSS*%
X115885000Y-84625000D03*
%TD*%
D22*
%TO.P,D2,1,K*%
%TO.N,GND*%
X124460000Y-84625000D03*
D23*
%TO.P,D2,2,A*%
%TO.N,Net-(D2-A)*%
X124460000Y-87165000D03*
%TO.P,D2,3,G*%
%TO.N,Net-(D1-A)*%
X124460000Y-89705000D03*
%TD*%
D12*
%TO.P,R3,1*%
%TO.N,Net-(Q2-C)*%
X116375000Y-116205000D03*
%TO.P,R3,2*%
%TO.N,Net-(Q1-B)*%
X105875000Y-116205000D03*
%TD*%
D18*
%TO.P,C10,1*%
%TO.N,Net-(D2-A)*%
X131445000Y-88395000D03*
%TO.P,C10,2*%
%TO.N,GND*%
X131445000Y-83395000D03*
%TD*%
D21*
%TO.P,TP6,1,1*%
%TO.N,Net-(U2A--)*%
X180975000Y-109835000D03*
%TD*%
D10*
%TO.P,J2,1,Pin_1*%
%TO.N,GND*%
X121920000Y-69850000D03*
D11*
%TO.P,J2,2,Pin_2*%
%TO.N,Net-(D3-A)*%
X124460000Y-69850000D03*
%TD*%
D10*
%TO.P,J6,1,Pin_1*%
%TO.N,Net-(J6-Pin_1)*%
X203200000Y-129540000D03*
D11*
%TO.P,J6,2,Pin_2*%
%TO.N,Net-(J6-Pin_2)*%
X205740000Y-129540000D03*
%TD*%
D16*
%TO.P,C12,1*%
%TO.N,Net-(D3-A)*%
X134935000Y-104675000D03*
%TO.P,C12,2*%
%TO.N,GND*%
X134935000Y-102675000D03*
%TD*%
D12*
%TO.P,R9,1*%
%TO.N,/PH_K*%
X186060000Y-103845000D03*
%TO.P,R9,2*%
%TO.N,/SENSOR*%
X186060000Y-93345000D03*
%TD*%
D19*
%TO.P,U4,1,ADJ*%
%TO.N,Net-(D3-A)*%
X134935000Y-96690000D03*
D20*
%TO.P,U4,2,VO*%
%TO.N,+8V4*%
X137475000Y-96690000D03*
%TO.P,U4,3,VI*%
%TO.N,VSS*%
X140015000Y-96690000D03*
%TD*%
D10*
%TO.P,SW1,1*%
%TO.N,VDC*%
X130810000Y-69850000D03*
D11*
%TO.P,SW1,2*%
%TO.N,VSS*%
X133350000Y-69850000D03*
%TD*%
D21*
%TO.P,TP1,1,1*%
%TO.N,Net-(D2-A)*%
X115570000Y-76835000D03*
%TD*%
D24*
%TO.P,Q2,1,C*%
%TO.N,Net-(Q2-C)*%
X113030000Y-120650000D03*
D25*
%TO.P,Q2,2,B*%
%TO.N,Net-(Q2-B)*%
X114300000Y-120650000D03*
%TO.P,Q2,3,E*%
%TO.N,GND*%
X115570000Y-120650000D03*
%TD*%
D18*
%TO.P,C4,1*%
%TO.N,+3V3*%
X152400000Y-95210000D03*
%TO.P,C4,2*%
%TO.N,GND*%
X152400000Y-90210000D03*
%TD*%
D12*
%TO.P,R12,1*%
%TO.N,/V_bat*%
X117790000Y-105750000D03*
%TO.P,R12,2*%
%TO.N,GND*%
X117790000Y-95250000D03*
%TD*%
D16*
%TO.P,C7,1*%
%TO.N,+3V3*%
X155210000Y-115570000D03*
%TO.P,C7,2*%
%TO.N,GND*%
X157210000Y-115570000D03*
%TD*%
D17*
%TO.P,R10,1*%
%TO.N,Net-(D3-A)*%
X127950000Y-95540000D03*
%TO.P,R10,2*%
%TO.N,+8V4*%
X127950000Y-110540000D03*
%TD*%
D21*
%TO.P,TP5,1,1*%
%TO.N,Net-(D3-A)*%
X125095000Y-76835000D03*
%TD*%
D12*
%TO.P,R11,1*%
%TO.N,Net-(D3-A)*%
X122235000Y-95250000D03*
%TO.P,R11,2*%
%TO.N,/V_bat*%
X122235000Y-105750000D03*
%TD*%
%TO.P,R8,1*%
%TO.N,Net-(J3-Pin_2)*%
X196510000Y-76200000D03*
%TO.P,R8,2*%
%TO.N,Net-(R8-Pad2)*%
X207010000Y-76200000D03*
%TD*%
%TO.P,R5,1*%
%TO.N,+3V3*%
X146685000Y-95715000D03*
%TO.P,R5,2*%
%TO.N,/EN*%
X146685000Y-106215000D03*
%TD*%
D26*
%TO.P,C3,1*%
%TO.N,+3V3*%
X146685000Y-92190000D03*
%TO.P,C3,2*%
%TO.N,GND*%
X146685000Y-90690000D03*
%TD*%
D18*
%TO.P,C2,1*%
%TO.N,/EN*%
X152400000Y-99100000D03*
%TO.P,C2,2*%
%TO.N,GND*%
X152400000Y-104100000D03*
%TD*%
%TO.P,C6,1*%
%TO.N,+5V*%
X102275000Y-104310000D03*
%TO.P,C6,2*%
%TO.N,GND*%
X107275000Y-104310000D03*
%TD*%
D27*
%TO.P,Q4,1,S*%
%TO.N,GND*%
X197485000Y-130810000D03*
D28*
%TO.P,Q4,2,G*%
%TO.N,/SENSOR*%
X197485000Y-129540000D03*
%TO.P,Q4,3,D*%
%TO.N,Net-(J6-Pin_1)*%
X197485000Y-128270000D03*
%TD*%
D15*
%TO.P,RV3,1,1*%
%TO.N,+3V3*%
X149225000Y-130175000D03*
%TO.P,RV3,2,2*%
%TO.N,Net-(U5-ADJ)*%
X151765000Y-127635000D03*
%TO.P,RV3,3,3*%
%TO.N,GND*%
X154305000Y-130175000D03*
%TD*%
D29*
%TO.P,Q1,1,E*%
%TO.N,+5V*%
X103505000Y-120650000D03*
D17*
%TO.P,Q1,2,B*%
%TO.N,Net-(Q1-B)*%
X106045000Y-120650000D03*
%TO.P,Q1,3,C*%
%TO.N,/PWM_5V*%
X108585000Y-120650000D03*
%TD*%
D30*
%TO.P,U2,1*%
%TO.N,/SENSOR*%
X198125000Y-93345000D03*
D18*
%TO.P,U2,2,-*%
%TO.N,Net-(U2A--)*%
X198125000Y-95885000D03*
%TO.P,U2,3,+*%
%TO.N,/PH_K*%
X198125000Y-98425000D03*
%TO.P,U2,4,V-*%
%TO.N,GND*%
X198125000Y-100965000D03*
%TO.P,U2,5,+*%
%TO.N,unconnected-(U2B-+-Pad5)*%
X205745000Y-100965000D03*
%TO.P,U2,6,-*%
%TO.N,unconnected-(U2B---Pad6)*%
X205745000Y-98425000D03*
%TO.P,U2,7*%
%TO.N,unconnected-(U2-Pad7)*%
X205745000Y-95885000D03*
%TO.P,U2,8,V+*%
%TO.N,+3V3*%
X205745000Y-93345000D03*
%TD*%
D21*
%TO.P,TP8,1,1*%
%TO.N,/SENSOR*%
X180975000Y-93325000D03*
%TD*%
D19*
%TO.P,U3,1,VI*%
%TO.N,VDC*%
X109535000Y-96690000D03*
D20*
%TO.P,U3,2,GND*%
%TO.N,GND*%
X106995000Y-96690000D03*
%TO.P,U3,3,VO*%
%TO.N,+5V*%
X104455000Y-96690000D03*
%TD*%
D10*
%TO.P,J5,1,Pin_1*%
%TO.N,GND*%
X165100000Y-129540000D03*
D11*
%TO.P,J5,2,Pin_2*%
%TO.N,+3V3*%
X167640000Y-129540000D03*
%TO.P,J5,3,Pin_3*%
%TO.N,/SW*%
X170180000Y-129540000D03*
%TO.P,J5,4,Pin_4*%
%TO.N,/DT*%
X172720000Y-129540000D03*
%TO.P,J5,5,Pin_5*%
%TO.N,/CLK*%
X175260000Y-129540000D03*
%TD*%
D31*
%TO.P,D1,1,K*%
%TO.N,VSS*%
X120015000Y-83355000D03*
D18*
%TO.P,D1,2,A*%
%TO.N,Net-(D1-A)*%
X120015000Y-90975000D03*
%TD*%
D32*
%TO.P,U1,39,GND*%
%TO.N,GND*%
X163895000Y-97215000D03*
X163895000Y-98615000D03*
X164595000Y-96515000D03*
X164595000Y-97915000D03*
X164595000Y-99315000D03*
X165270000Y-97215000D03*
X165270000Y-98615000D03*
X165995000Y-96515000D03*
X165995000Y-97915000D03*
X165995000Y-99315000D03*
X166695000Y-97215000D03*
X166695000Y-98615000D03*
%TD*%
D21*
%TO.P,TP4,1,1*%
%TO.N,+3V3*%
X160020000Y-129540000D03*
%TD*%
D12*
%TO.P,R6,1*%
%TO.N,Net-(D1-A)*%
X108585000Y-94150000D03*
%TO.P,R6,2*%
%TO.N,GND*%
X108585000Y-83650000D03*
%TD*%
%TO.P,R2,1*%
%TO.N,+3V3*%
X190505000Y-108925000D03*
%TO.P,R2,2*%
%TO.N,/PH_K*%
X190505000Y-98425000D03*
%TD*%
D33*
%TO.P,J3,1,Pin_1*%
%TO.N,/PH_K*%
X203835000Y-69215000D03*
D11*
%TO.P,J3,2,Pin_2*%
%TO.N,Net-(J3-Pin_2)*%
X201295000Y-69215000D03*
%TO.P,J3,3,Pin_3*%
%TO.N,GND*%
X198755000Y-69215000D03*
%TD*%
D13*
%TO.P,J8,1,Pin_1*%
%TO.N,+5V*%
X134502500Y-118110000D03*
D14*
%TO.P,J8,2,Pin_2*%
%TO.N,/TMS*%
X137042500Y-118110000D03*
%TO.P,J8,3,Pin_3*%
%TO.N,GND*%
X134502500Y-120650000D03*
%TO.P,J8,4,Pin_4*%
%TO.N,/TCK*%
X137042500Y-120650000D03*
%TO.P,J8,5,Pin_5*%
%TO.N,GND*%
X134502500Y-123190000D03*
%TO.P,J8,6,Pin_6*%
%TO.N,/TDO*%
X137042500Y-123190000D03*
%TO.P,J8,7,Pin_7*%
%TO.N,GND*%
X134502500Y-125730000D03*
%TO.P,J8,8,Pin_8*%
%TO.N,/TDI*%
X137042500Y-125730000D03*
%TO.P,J8,9,Pin_9*%
%TO.N,GND*%
X134502500Y-128270000D03*
%TO.P,J8,10,Pin_10*%
%TO.N,unconnected-(J8-Pin_10-Pad10)*%
X137042500Y-128270000D03*
%TD*%
D15*
%TO.P,RV1,1,1*%
%TO.N,+3V3*%
X204475000Y-110490000D03*
%TO.P,RV1,2,2*%
%TO.N,Net-(U2A--)*%
X201935000Y-113030000D03*
%TO.P,RV1,3,3*%
%TO.N,GND*%
X199395000Y-110490000D03*
%TD*%
D21*
%TO.P,TP7,1,1*%
%TO.N,/PH_K*%
X180975000Y-101600000D03*
%TD*%
D12*
%TO.P,R4,1*%
%TO.N,/PWM_3V3*%
X127170000Y-123825000D03*
%TO.P,R4,2*%
%TO.N,Net-(Q2-B)*%
X116670000Y-123825000D03*
%TD*%
D34*
%TO.N,GND*%
X161772600Y-90195000D03*
X165735000Y-102870000D03*
X121717100Y-82670500D03*
X187379400Y-90195000D03*
X152960700Y-109127700D03*
%TO.N,/EN*%
X167682300Y-92243700D03*
%TO.N,+3V3*%
X167021000Y-117287400D03*
%TO.N,+5V*%
X135394200Y-113117600D03*
%TO.N,/TX*%
X182033200Y-95462500D03*
%TO.N,/RX*%
X176973900Y-95277500D03*
%TO.N,/IO0*%
X177793300Y-108953300D03*
%TO.N,/TMS*%
X151016700Y-105249200D03*
%TO.N,/TDI*%
X152051200Y-106350000D03*
%TO.N,/SDA*%
X168598200Y-125229300D03*
X169230300Y-97089900D03*
%TO.N,/SCL*%
X167806000Y-94475000D03*
X163867300Y-126364600D03*
%TO.N,/SW*%
X170775900Y-100713200D03*
%TO.N,/DT*%
X174095100Y-102863200D03*
%TO.N,/CLK*%
X175105400Y-107928300D03*
%TO.N,/PWM_3V3*%
X152687900Y-112800700D03*
X159470800Y-101222500D03*
%TO.N,Net-(U2A--)*%
X202704200Y-95479800D03*
%TO.N,Net-(D3-A)*%
X128834000Y-78965000D03*
%TD*%
D35*
%TO.N,/SENSOR*%
X196104100Y-94329100D02*
X194950000Y-93175000D01*
X196104100Y-112151100D02*
X196104100Y-94329100D01*
X198636700Y-114683700D02*
X196104100Y-112151100D01*
X198636700Y-129540000D02*
X198636700Y-114683700D01*
X197485000Y-129540000D02*
X198636700Y-129540000D01*
D36*
%TO.N,GND*%
X153106500Y-108981900D02*
X152960700Y-109127700D01*
X152083600Y-96801200D02*
X153812000Y-98529600D01*
X157210000Y-130175000D02*
X154305000Y-130175000D01*
X194166500Y-86431400D02*
X190402900Y-90195000D01*
X161772600Y-90195000D02*
X165277800Y-93700200D01*
X106995000Y-96690000D02*
X106995000Y-85240000D01*
X194166500Y-72331800D02*
X194166500Y-86431400D01*
X199475000Y-109136800D02*
X199475000Y-106045000D01*
X153812000Y-98529600D02*
X153812000Y-102688000D01*
X109935000Y-104310000D02*
X117732000Y-112107000D01*
X107275000Y-104310000D02*
X106995000Y-104030000D01*
X157210000Y-130175000D02*
X157210000Y-115570000D01*
X146685000Y-90690000D02*
X146928500Y-90690000D01*
X153812000Y-102688000D02*
X152400000Y-104100000D01*
X134502500Y-120650000D02*
X133038800Y-119186300D01*
X117732000Y-112107000D02*
X117732000Y-119614700D01*
X133038800Y-119186300D02*
X133038800Y-104571200D01*
X121717100Y-70052900D02*
X121920000Y-69850000D01*
X197485000Y-130810000D02*
X198836700Y-130810000D01*
X158207500Y-131641700D02*
X157210000Y-130644200D01*
X104140000Y-69850000D02*
X104140000Y-76835000D01*
X198755000Y-69215000D02*
X197283300Y-69215000D01*
X134502500Y-120650000D02*
X134502500Y-123190000D01*
X121717100Y-82670500D02*
X121717100Y-70052900D01*
X165277800Y-93700200D02*
X165277800Y-96520000D01*
X134502500Y-123190000D02*
X134502500Y-125730000D01*
X151988500Y-96801200D02*
X152083600Y-96801200D01*
X133038800Y-104571200D02*
X134935000Y-102675000D01*
X146928500Y-90690000D02*
X150998300Y-94759800D01*
X150998300Y-94759800D02*
X150998300Y-95811000D01*
X165100000Y-129540000D02*
X162998300Y-131641700D01*
X117732000Y-119614700D02*
X116696700Y-120650000D01*
X134502500Y-125730000D02*
X134502500Y-128270000D01*
X199395000Y-110490000D02*
X199475000Y-110410000D01*
X104140000Y-84665000D02*
X104140000Y-76835000D01*
X153106500Y-104806500D02*
X153106500Y-108981900D01*
X106995000Y-85240000D02*
X108585000Y-83650000D01*
X199475000Y-109136800D02*
X199475000Y-130171700D01*
X199475000Y-130171700D02*
X198836700Y-130810000D01*
X152400000Y-104100000D02*
X153106500Y-104806500D01*
X190402900Y-90195000D02*
X187379400Y-90195000D01*
X157210000Y-130644200D02*
X157210000Y-130175000D01*
X199475000Y-110410000D02*
X199475000Y-109136800D01*
X150998300Y-95811000D02*
X151988500Y-96801200D01*
X115570000Y-120650000D02*
X116696700Y-120650000D01*
X197283300Y-69215000D02*
X194166500Y-72331800D01*
X162998300Y-131641700D02*
X158207500Y-131641700D01*
X106995000Y-104030000D02*
X106995000Y-96690000D01*
X165735000Y-102870000D02*
X165735000Y-99847400D01*
D35*
%TO.N,/EN*%
X175310900Y-92367500D02*
X167806000Y-92367500D01*
X146685000Y-104815000D02*
X146685000Y-106215000D01*
X167806000Y-92367500D02*
X167806000Y-92367400D01*
X183515000Y-100571600D02*
X175310900Y-92367500D01*
X152400000Y-99100000D02*
X146685000Y-104815000D01*
X183515000Y-123190000D02*
X183515000Y-100571600D01*
X167806000Y-92367400D02*
X167682300Y-92243700D01*
D36*
%TO.N,VSS*%
X133350000Y-68153300D02*
X133303100Y-68106400D01*
X138745000Y-80740000D02*
X137201300Y-80740000D01*
X120943300Y-68106400D02*
X120015000Y-69034700D01*
X120015000Y-69034700D02*
X120015000Y-83355000D01*
X137201300Y-80740000D02*
X137201300Y-93876300D01*
X137201300Y-93876300D02*
X140015000Y-96690000D01*
X133303100Y-68106400D02*
X120943300Y-68106400D01*
X141908400Y-103956600D02*
X140650000Y-105215000D01*
X141908400Y-97029200D02*
X141908400Y-103956600D01*
X140015000Y-96690000D02*
X141569200Y-96690000D01*
X133350000Y-76835000D02*
X133350000Y-69850000D01*
X135451700Y-78990400D02*
X135451700Y-76835000D01*
X137201300Y-80740000D02*
X135451700Y-78990400D01*
X141569200Y-96690000D02*
X141908400Y-97029200D01*
X133350000Y-69850000D02*
X133350000Y-68153300D01*
X133350000Y-76835000D02*
X135451700Y-76835000D01*
%TO.N,+3V3*%
X195410000Y-123190000D02*
X195410000Y-113830000D01*
X204294100Y-94795900D02*
X204294100Y-105864100D01*
X153972000Y-115570000D02*
X151667800Y-113265800D01*
X146685000Y-95715000D02*
X146685000Y-92190000D01*
X151667800Y-112320900D02*
X154813700Y-109175000D01*
X151765000Y-119015000D02*
X151765000Y-121015000D01*
X154813700Y-109175000D02*
X154813700Y-97623700D01*
X167021000Y-127224300D02*
X167640000Y-127843300D01*
X167021000Y-117287400D02*
X167021000Y-127224300D01*
X195410000Y-113830000D02*
X190505000Y-108925000D01*
X155210000Y-115570000D02*
X153972000Y-115570000D01*
X149225000Y-130175000D02*
X149225000Y-123555000D01*
X205745000Y-93345000D02*
X204294100Y-94795900D01*
X204475000Y-110490000D02*
X204475000Y-106045000D01*
X190505000Y-108120000D02*
X190505000Y-108925000D01*
X167640000Y-129540000D02*
X167640000Y-127843300D01*
X151667800Y-113265800D02*
X151667800Y-112320900D01*
X154813700Y-97623700D02*
X152400000Y-95210000D01*
X149225000Y-123555000D02*
X151765000Y-121015000D01*
X204294100Y-105864100D02*
X204475000Y-106045000D01*
X194950000Y-103675000D02*
X190505000Y-108120000D01*
X155210000Y-115570000D02*
X151765000Y-119015000D01*
%TO.N,+5V*%
X103505000Y-121212900D02*
X103505000Y-120650000D01*
X134502500Y-114009300D02*
X135394200Y-113117600D01*
X106045000Y-109855000D02*
X106045000Y-107753300D01*
X134502500Y-118110000D02*
X134502500Y-114009300D01*
X148860000Y-115570000D02*
X148860000Y-120650000D01*
X102900800Y-103684200D02*
X102275000Y-104310000D01*
X197485000Y-85236600D02*
X197485000Y-83820000D01*
X187862900Y-121382100D02*
X187862900Y-94858700D01*
X187862900Y-94858700D02*
X197485000Y-85236600D01*
X148860000Y-120650000D02*
X149225000Y-121015000D01*
X103505000Y-120650000D02*
X103505000Y-114496700D01*
X102870000Y-129540000D02*
X102870000Y-122786700D01*
X102900800Y-96690000D02*
X102900800Y-103684200D01*
X186055000Y-123190000D02*
X187862900Y-121382100D01*
X103505000Y-114496700D02*
X106045000Y-111956700D01*
X106045000Y-109855000D02*
X106045000Y-111956700D01*
X103505000Y-121212900D02*
X103505000Y-122151700D01*
X105718300Y-107753300D02*
X106045000Y-107753300D01*
X102870000Y-122786700D02*
X103505000Y-122151700D01*
X104455000Y-96690000D02*
X102900800Y-96690000D01*
X102275000Y-104310000D02*
X105718300Y-107753300D01*
%TO.N,Net-(D2-A)*%
X115570000Y-78936700D02*
X117496600Y-80863300D01*
X117496600Y-85553400D02*
X115885000Y-87165000D01*
X117496600Y-80863300D02*
X117496600Y-85553400D01*
X115570000Y-76835000D02*
X115570000Y-78936700D01*
X115570000Y-69850000D02*
X115570000Y-76835000D01*
%TO.N,VDC*%
X114935000Y-104310000D02*
X114651200Y-104026200D01*
X121876200Y-83928000D02*
X130810000Y-74994200D01*
X109535000Y-96690000D02*
X111089200Y-96690000D01*
X111089200Y-96690000D02*
X114651200Y-100252000D01*
X130810000Y-74994200D02*
X130810000Y-69850000D01*
X121876200Y-93027000D02*
X121876200Y-83928000D01*
X114651200Y-104026200D02*
X114651200Y-100252000D01*
X114651200Y-100252000D02*
X121876200Y-93027000D01*
D35*
%TO.N,/TX*%
X184785500Y-124459500D02*
X183515000Y-125730000D01*
X182033200Y-95462500D02*
X184785500Y-98214800D01*
X184785500Y-98214800D02*
X184785500Y-124459500D01*
%TO.N,/RX*%
X176973900Y-95277500D02*
X176973900Y-121905200D01*
X183338700Y-128270000D02*
X183515000Y-128270000D01*
X176973900Y-121905200D02*
X183338700Y-128270000D01*
%TO.N,/IO0*%
X177793300Y-121809600D02*
X182983700Y-127000000D01*
X182983700Y-127000000D02*
X184785000Y-127000000D01*
X184785000Y-127000000D02*
X186055000Y-128270000D01*
X177793300Y-108953300D02*
X177793300Y-121809600D01*
%TO.N,/TMS*%
X137042500Y-118110000D02*
X149903300Y-105249200D01*
X149903300Y-105249200D02*
X151016700Y-105249200D01*
%TO.N,/TDI*%
X152051200Y-106350000D02*
X152051200Y-110721300D01*
X152051200Y-110721300D02*
X137042500Y-125730000D01*
D36*
%TO.N,Net-(J3-Pin_2)*%
X196510000Y-74000000D02*
X196510000Y-76200000D01*
X201295000Y-69215000D02*
X196510000Y-74000000D01*
D35*
%TO.N,/SDA*%
X169230300Y-97089900D02*
X169230300Y-124597200D01*
X169230300Y-124597200D02*
X168598200Y-125229300D01*
%TO.N,/SCL*%
X163867300Y-111432600D02*
X163867300Y-126364600D01*
X167806000Y-107493900D02*
X163867300Y-111432600D01*
X167806000Y-94475000D02*
X167806000Y-107493900D01*
D36*
%TO.N,/PWM_5V*%
X108585000Y-127208300D02*
X107950000Y-127843300D01*
X107950000Y-129540000D02*
X107950000Y-127843300D01*
X108585000Y-120650000D02*
X108585000Y-127208300D01*
D35*
%TO.N,/SW*%
X170181500Y-128041800D02*
X170181500Y-100713200D01*
X170181500Y-100713200D02*
X170775900Y-100713200D01*
X170775900Y-100713200D02*
X170181500Y-100713200D01*
X170180000Y-128043300D02*
X170181500Y-128041800D01*
X170180000Y-129540000D02*
X170180000Y-128043300D01*
%TO.N,/DT*%
X174095100Y-128164900D02*
X174095100Y-102863200D01*
X172720000Y-129540000D02*
X174095100Y-128164900D01*
%TO.N,/CLK*%
X175105400Y-107928300D02*
X175105400Y-127888700D01*
X175105400Y-127888700D02*
X175260000Y-128043300D01*
X175260000Y-129540000D02*
X175260000Y-128043300D01*
%TO.N,/PH_K*%
X203835000Y-92715000D02*
X198125000Y-98425000D01*
X203835000Y-69215000D02*
X203835000Y-92715000D01*
%TO.N,Net-(J6-Pin_2)*%
X205740000Y-129540000D02*
X205740000Y-123360000D01*
X205740000Y-123360000D02*
X205910000Y-123190000D01*
%TO.N,Net-(Q1-B)*%
X106045000Y-120650000D02*
X106045000Y-116375000D01*
X106045000Y-116375000D02*
X105875000Y-116205000D01*
%TO.N,Net-(Q2-B)*%
X116670000Y-123825000D02*
X114646700Y-121801700D01*
X114300000Y-120650000D02*
X114300000Y-121801700D01*
X114646700Y-121801700D02*
X114300000Y-121801700D01*
%TO.N,Net-(Q2-C)*%
X116375000Y-116205000D02*
X113081700Y-119498300D01*
X113081700Y-119498300D02*
X113030000Y-119498300D01*
X113030000Y-120650000D02*
X113030000Y-119498300D01*
D36*
%TO.N,/PWM_3V3*%
X152687900Y-112800700D02*
X159470800Y-106017800D01*
X159470800Y-106017800D02*
X159470800Y-101222500D01*
%TO.N,+8V4*%
X137475000Y-98291700D02*
X127950000Y-107816700D01*
X127950000Y-107816700D02*
X127950000Y-110540000D01*
X137475000Y-96690000D02*
X137475000Y-98291700D01*
D35*
%TO.N,Net-(U2A--)*%
X201935000Y-96249000D02*
X201935000Y-113030000D01*
X202704200Y-95479800D02*
X201935000Y-96249000D01*
%TO.N,Net-(U5-ADJ)*%
X151765000Y-127635000D02*
X154305000Y-125095000D01*
X154305000Y-125095000D02*
X154305000Y-121015000D01*
D36*
%TO.N,Net-(D3-A)*%
X124460000Y-69850000D02*
X124460000Y-71546700D01*
X129100000Y-96690000D02*
X127950000Y-95540000D01*
X124460000Y-71546700D02*
X125095000Y-72181700D01*
X128834000Y-78965000D02*
X128834000Y-94656000D01*
X125095000Y-72181700D02*
X125095000Y-76835000D01*
X128834000Y-94656000D02*
X127950000Y-95540000D01*
X134935000Y-96690000D02*
X129100000Y-96690000D01*
%TD*%
%TA.AperFunction,Conductor*%
%TO.N,GND*%
G36*
X167329039Y-95777685D02*
G01*
X167374794Y-95830489D01*
X167386000Y-95882000D01*
X167386000Y-99952000D01*
X167366315Y-100019039D01*
X167313511Y-100064794D01*
X167262000Y-100076000D01*
X163217400Y-100076000D01*
X163150361Y-100056315D01*
X163104606Y-100003511D01*
X163093400Y-99952000D01*
X163093400Y-95882000D01*
X163113085Y-95814961D01*
X163165889Y-95769206D01*
X163217400Y-95758000D01*
X167262000Y-95758000D01*
X167329039Y-95777685D01*
G37*
%TD.AperFunction*%
%TD*%
M02*
