M48
; DRILL file {KiCad 9.0.3} date 2025-08-15T02:20:32+0000
; FORMAT={-:-/ absolute / inch / decimal}
; #@! TF.CreationDate,2025-08-15T02:20:32+00:00
; #@! TF.GenerationSoftware,Kicad,Pcbnew,9.0.3
; #@! TF.FileFunction,Plated,1,2,PTH
FMAT,2
INCH
; #@! TA.AperFunction,Plated,PTH,ComponentDrill
T1C0.0079
; #@! TA.AperFunction,Plated,PTH,ViaDrill
T2C0.0157
; #@! TA.AperFunction,Plated,PTH,ComponentDrill
T3C0.0276
; #@! TA.AperFunction,Plated,PTH,ComponentDrill
T4C0.0295
; #@! TA.AperFunction,Plated,PTH,ComponentDrill
T5C0.0315
; #@! TA.AperFunction,Plated,PTH,ComponentDrill
T6C0.0315
; #@! TA.AperFunction,Plated,PTH,ComponentDrill
T7C0.0394
; #@! TA.AperFunction,Plated,PTH,ComponentDrill
T8C0.0394
; #@! TA.AperFunction,Plated,PTH,ComponentDrill
T9C0.0433
; #@! TA.AperFunction,Plated,PTH,ComponentDrill
T10C0.0469
; #@! TA.AperFunction,Plated,PTH,ComponentDrill
T11C0.0591
%
G90
G05
T1
X6.4526Y-3.8274
X6.4526Y-3.8825
X6.4801Y-3.7998
X6.4801Y-3.8549
X6.4801Y-3.91
X6.5067Y-3.8274
X6.5067Y-3.8825
X6.5352Y-3.7998
X6.5352Y-3.8549
X6.5352Y-3.91
X6.5628Y-3.8274
X6.5628Y-3.8825
T2
X4.792Y-3.2547
X5.0722Y-3.1089
X5.3305Y-4.4534
X5.9455Y-4.1437
X5.9863Y-4.187
X6.0113Y-4.441
X6.0221Y-4.2964
X6.2784Y-3.9851
X6.369Y-3.551
X6.4515Y-4.975
X6.525Y-4.05
X6.5756Y-4.6176
X6.6017Y-3.6316
X6.6065Y-3.7195
X6.6377Y-4.9303
X6.6626Y-3.8224
X6.7235Y-3.9651
X6.8541Y-4.0497
X6.8939Y-4.2491
X6.9675Y-3.7511
X6.9997Y-4.2895
X7.1667Y-3.7584
X7.3771Y-3.551
X7.9805Y-3.759
T3
X4.1683Y-4.575
X4.275Y-3.2933
X4.275Y-3.7067
X4.5817Y-4.575
X4.5933Y-4.875
X4.6374Y-3.75
X4.6374Y-4.1634
X4.8124Y-3.75
X4.8124Y-4.1634
X5.0067Y-4.875
X5.775Y-3.7683
X5.775Y-4.1817
X7.3252Y-3.675
X7.3252Y-4.0884
X7.5002Y-3.875
X7.5002Y-4.2884
X7.6752Y-3.6683
X7.6752Y-4.0817
X7.6933Y-4.85
X7.7366Y-3.0
X8.1067Y-4.85
X8.15Y-3.0
T4
X4.45Y-4.75
X4.5Y-4.75
X4.55Y-4.75
X7.775Y-5.05
X7.775Y-5.1
X7.775Y-5.15
T5
X5.3124Y-4.0423
X5.3124Y-4.1211
X5.5374Y-4.0636
X5.5374Y-4.1423
X5.775Y-3.5705
X5.775Y-3.6295
X5.8606Y-4.55
X5.9394Y-4.55
X6.1106Y-4.55
X6.1894Y-4.55
T6
X4.0266Y-4.1067
X4.1Y-3.3333
X4.1Y-3.5301
X4.2234Y-4.1067
X4.3281Y-4.1067
X4.525Y-4.1067
X4.725Y-3.2817
X4.725Y-3.5817
X5.175Y-3.2833
X5.175Y-3.4801
X5.875Y-5.125
X5.975Y-5.025
X6.0Y-3.5516
X6.0Y-3.7484
X6.0Y-3.9016
X6.0Y-4.0984
X6.075Y-5.125
X7.775Y-3.3
X7.8002Y-3.675
X7.8002Y-3.775
X7.8002Y-3.875
X7.8002Y-3.975
X7.8502Y-4.35
X7.8533Y-4.175
X7.875Y-3.2
X7.9502Y-4.45
X7.975Y-3.3
X8.0502Y-4.175
X8.0502Y-4.35
X8.1002Y-3.675
X8.1002Y-3.775
X8.1002Y-3.875
X8.1002Y-3.975
T7
X4.075Y-4.75
X4.175Y-4.75
X4.275Y-4.75
X5.0374Y-3.7614
X5.0374Y-4.352
X5.4624Y-3.1787
X5.4624Y-3.5213
T8
X5.2954Y-4.65
X5.2954Y-4.75
X5.2954Y-4.85
X5.2954Y-4.95
X5.2954Y-5.05
X5.3954Y-4.65
X5.3954Y-4.75
X5.3954Y-4.85
X5.3954Y-4.95
X5.3954Y-5.05
X7.225Y-4.85
X7.225Y-4.95
X7.225Y-5.05
X7.325Y-4.85
X7.325Y-4.95
X7.325Y-5.05
T9
X4.1124Y-3.8067
X4.2124Y-3.8067
X4.3124Y-3.8067
X4.5624Y-3.3317
X4.5624Y-3.4317
X4.5624Y-3.5317
X4.9Y-3.3317
X4.9Y-3.4317
X4.9Y-3.5317
X5.3124Y-3.8067
X5.4124Y-3.8067
X5.5124Y-3.8067
X5.875Y-4.7644
X5.975Y-4.7644
X6.075Y-4.7644
T10
X4.05Y-5.1
X4.1Y-2.75
X4.15Y-5.1
X4.2Y-2.75
X4.25Y-5.1
X4.35Y-5.1
X4.45Y-2.75
X4.45Y-5.1
X4.55Y-2.75
X4.55Y-5.1
X4.8Y-2.75
X4.9Y-2.75
X5.15Y-2.75
X5.25Y-2.75
X6.5Y-5.1
X6.6Y-5.1
X6.7Y-5.1
X6.8Y-5.1
X6.9Y-5.1
X7.825Y-2.75
X7.925Y-2.75
X8.0Y-5.1
X8.025Y-2.75
X8.1Y-5.1
T11
X4.1Y-3.025
X4.175Y-4.325
X4.55Y-3.025
X4.925Y-3.025
X5.25Y-3.025
X6.3Y-5.1
X7.125Y-3.6742
X7.125Y-4.0
X7.125Y-4.3242
M30
